<svg width="1042" height="923" viewBox="0 0 1042 923" fill="none" xmlns="http://www.w3.org/2000/svg">
<g clip-path="url(#clip0_28_16)">
<path fill-rule="evenodd" clip-rule="evenodd" d="M739.214 922.791V686.96H785.059C838.61 681.906 874.776 646.603 875.344 596.825V503.404L912.11 483.213C912.11 483.213 867.737 318.893 834.824 238.126C801.912 157.359 745.006 91.7484 676.076 45.2605C642.965 22.9305 604.253 11.6104 572.959 5.87534C595.8 2.00137 619.366 0.00311028 643.438 0.00311028C643.438 0.00311028 736.651 -1.22737 805.581 45.2605C874.512 91.7484 931.418 157.359 964.33 238.126C997.243 318.893 1041.62 483.213 1041.62 483.213L1004.85 503.404V596.825C1004.28 646.603 968.116 681.906 914.565 686.96H868.72V922.791H739.214Z" fill="black"/>
</g>
<path fill-rule="evenodd" clip-rule="evenodd" d="M531.252 45.2605C462.321 -1.22737 369.109 0.00311028 369.109 0.00311028C166.679 0.00311028 0 141.316 0 351.055C0 527.42 106.257 653.328 264.674 677.428V922.791H429.533H594.391V686.96H640.235C693.787 681.906 729.952 646.603 730.52 596.825V545.589V503.404L767.286 483.213C767.286 483.213 722.913 318.893 690.001 238.126C657.088 157.359 600.182 91.7484 531.252 45.2605ZM624.54 380.486C660.949 353.882 657.061 286.604 615.857 230.215C574.653 173.826 511.736 149.68 475.328 176.283C438.92 202.887 442.808 270.166 484.011 326.555C525.215 382.944 588.132 407.09 624.54 380.486Z" fill="black"/>
<defs>
<clipPath id="clip0_28_16">
<rect width="896.792" height="922.791" fill="white" transform="translate(144.824)"/>
</clipPath>
</defs>
</svg>
