<svg width="1042" height="923" viewBox="0 0 1042 923" fill="none" xmlns="http://www.w3.org/2000/svg">
<g clip-path="url(#clip0_175_26)">
<path fill-rule="evenodd" clip-rule="evenodd" d="M739.214 922.791V686.96H785.059C838.61 681.906 874.776 646.603 875.344 596.825V503.404L912.11 483.213C912.11 483.213 867.737 318.894 834.824 238.126C801.912 157.359 745.006 91.7484 676.076 45.2605C642.965 22.9305 604.253 11.6104 572.959 5.87534C595.8 2.00137 619.366 0.00311028 643.438 0.00311028C643.438 0.00311028 736.651 -1.22737 805.581 45.2605C874.512 91.7484 931.417 157.359 964.33 238.126C997.243 318.894 1041.62 483.213 1041.62 483.213L1004.85 503.404V596.825C1004.28 646.603 968.116 681.906 914.565 686.96H868.72V922.791H739.214Z" fill="currentColor"/>
</g>
<path d="M369.108 0.00310689C369.125 0.00288229 462.328 -1.22266 531.252 45.2609C600.182 91.7488 657.088 157.36 690.001 238.127C722.895 318.848 767.235 483.023 767.286 483.213L730.521 503.404V596.825C729.953 646.603 693.787 681.906 640.235 686.96H594.391V922.791H264.674V677.428C106.257 653.327 0 527.42 0 351.055C0.000231111 141.316 166.679 0.00325519 369.108 0.00310689ZM615.856 230.215C574.653 173.826 511.736 149.68 475.328 176.283C438.92 202.887 442.808 270.166 484.012 326.555C525.216 382.944 588.132 407.09 624.54 380.487C660.948 353.883 657.06 286.604 615.856 230.215Z" fill="currentColor"/>
<defs>
<clipPath id="clip0_175_26">
<rect width="896.792" height="922.791" fill="currentColor" transform="translate(144.824)"/>
</clipPath>
</defs>
</svg>
