<svg width="774" height="1005" viewBox="0 0 774 1005" fill="none" xmlns="http://www.w3.org/2000/svg">
<path fill-rule="evenodd" clip-rule="evenodd" d="M53.961 767.018H18.8159V723.257H134.092C196.65 723.257 232.498 755.725 232.498 807.25C232.498 859.482 195.244 891.244 135.497 891.244C130.577 891.244 103.867 891.244 103.867 891.244V957.592H144.635V1001.35H18.113V957.592H53.2581V767.018H53.961ZM104.57 847.483C104.57 847.483 129.171 847.483 138.309 847.483C167.128 847.483 182.592 829.131 182.592 807.25C182.592 783.958 166.425 767.018 138.309 767.018C133.389 767.018 104.57 767.018 104.57 767.018V847.483Z" fill="#050505"/>
<path d="M345.313 723H232V767.702H261.923L340.408 1003H399.762L486.587 767.702H517V723H405.158V767.702H432.138L373.764 928.333L319.315 767.702H345.313V723Z" fill="#050505"/>
<path fill-rule="evenodd" clip-rule="evenodd" d="M532 721H677C734.5 721 766.5 774.5 766.5 815C766.5 847 750 896.5 699 903L741.5 959.5H773.5V1004.5H707L616.5 878V959.5H641V1004.5H532V959.5H562V767H532V721ZM617.5 769.5V871.5H658.5C682.5 871.5 712 858 712 822.5C712 796.5 695 769.5 668 769.5H617.5Z" fill="#050505"/>
<g clip-path="url(#clip0_22_5)">
<path fill-rule="evenodd" clip-rule="evenodd" d="M530.841 662.67V493.316H563.763C602.219 489.687 628.19 464.335 628.598 428.589V361.502L655 347.002C655 347.002 623.135 229.002 599.5 171.002C575.865 113.002 535 65.8859 485.5 32.5023C461.723 16.4667 433.923 8.3376 411.451 4.21917C427.853 1.43722 444.776 0.00223354 462.063 0.00223354C462.063 0.00223354 529 -0.881393 578.5 32.5023C628 65.8859 668.865 113.002 692.5 171.002C716.135 229.002 748 347.002 748 347.002L721.598 361.502V428.589C721.19 464.335 695.219 489.687 656.763 493.316H623.841V662.67H530.841Z" fill="#050505"/>
</g>
<path fill-rule="evenodd" clip-rule="evenodd" d="M381.5 32.5023C332 -0.881393 265.063 0.00223354 265.063 0.00223354C119.695 0.00223354 0 101.481 0 252.098C0 378.748 76.3046 469.164 190.067 486.471V662.67H308.454H426.841V493.316H459.763C498.219 489.687 524.19 464.335 524.598 428.589V391.796V361.502L551 347.002C551 347.002 519.135 229.002 495.5 171.002C471.865 113.002 431 65.8859 381.5 32.5023ZM448.492 273.233C474.637 254.128 471.845 205.814 442.256 165.321C412.667 124.827 367.485 107.487 341.34 126.592C315.195 145.696 317.987 194.01 347.576 234.504C377.165 274.998 422.347 292.337 448.492 273.233Z" fill="#050505"/>
<defs>
<clipPath id="clip0_22_5">
<rect width="644" height="662.67" fill="#050505" transform="translate(104)"/>
</clipPath>
</defs>
</svg>
