<?xml version="1.0" encoding="UTF-8"?>
<!-- Generated by Pixelmator Pro 3.7 -->
<svg width="1052" height="1384" viewBox="0 0 1052 1384" xmlns="http://www.w3.org/2000/svg">
    <path id="Path" fill="#000000" fill-rule="evenodd" stroke="none" d="M 49.919498 1058.079956 L 0.978813 1058.079956 L 0.978813 997.142029 L 161.503998 997.142029 C 248.619003 997.142029 298.537994 1042.359985 298.537994 1114.109985 C 298.537994 1186.839966 246.660995 1231.069946 163.462006 1231.069946 C 156.610001 1231.069946 119.415001 1231.069946 119.415001 1231.069946 L 119.415001 1323.459961 L 176.186005 1323.459961 L 176.186005 1384.400024 L -0 1384.400024 L -0 1323.459961 L 48.940701 1323.459961 L 48.940701 1058.079956 L 49.919498 1058.079956 Z M 120.393997 1170.130005 C 120.393997 1170.130005 154.651993 1170.130005 167.376999 1170.130005 C 207.507996 1170.130005 229.042007 1144.579956 229.042007 1114.109985 C 229.042007 1081.670044 206.529999 1058.079956 167.376999 1058.079956 C 160.524994 1058.079956 120.393997 1058.079956 120.393997 1058.079956 L 120.393997 1170.130005 Z"/>
    <path id="path1" fill="#000000" stroke="none" d="M 455.638 994.784973 L 297.845001 994.784973 L 297.845001 1057.030029 L 339.513 1057.030029 L 448.807007 1384.689941 L 531.460022 1384.689941 L 652.366028 1057.030029 L 694.71698 1057.030029 L 694.71698 994.784973 L 538.973999 994.784973 L 538.973999 1057.030029 L 576.544006 1057.030029 L 495.256989 1280.719971 L 419.43399 1057.030029 L 455.638 1057.030029 L 455.638 994.784973 Z"/>
    <path id="path2" fill="#000000" fill-rule="evenodd" stroke="none" d="M 715.60498 995 L 917.52301 995 C 997.593994 995 1042.150024 1068.367676 1042.150024 1123.910522 C 1042.150024 1167.793213 1019.179993 1235.675659 948.158997 1244.588135 L 1007.340027 1322.072266 L 1051.900024 1322.072266 L 1051.900024 1383.780029 L 959.299011 1383.780029 L 833.275024 1210.307129 L 833.275024 1322.072266 L 867.392029 1322.072266 L 867.392029 1383.780029 L 715.60498 1383.780029 L 715.60498 1322.072266 L 757.380981 1322.072266 L 757.380981 1058.086426 L 715.60498 1058.086426 L 715.60498 995 Z M 834.666992 1061.51355 L 834.666992 1201.394653 L 891.760986 1201.394653 C 925.182007 1201.394653 966.262024 1182.880493 966.262024 1134.191895 C 966.262024 1098.541992 942.588989 1061.51355 904.98999 1061.51355 L 834.666992 1061.51355 Z"/>
    <clipPath id="clipPath1">
        <path d="M 144.824005 0 L 1041.615997 0 L 1041.615997 922.791016 L 144.824005 922.791016 Z"/>
    </clipPath>
    <g id="Group" clip-path="url(#clipPath1)">
        <path id="path3" fill="#000000" fill-rule="evenodd" stroke="none" d="M 739.215027 922.791016 L 739.215027 686.960022 L 785.059021 686.960022 C 838.611023 681.906006 874.776001 646.603027 875.343994 596.825012 L 875.343994 503.403992 L 912.109985 483.213013 C 912.109985 483.213013 867.737 318.893066 834.825012 238.125977 C 801.911987 157.359009 745.005981 91.748413 676.075989 45.260498 C 642.966003 22.930542 604.252991 11.610352 572.958984 5.875366 C 595.799988 2.001343 619.366028 0.003052 643.437988 0.003052 C 643.437988 0.003052 736.651001 -1.227417 805.580994 45.260498 C 874.512024 91.748413 931.41803 157.359009 964.330017 238.125977 C 997.242981 318.893066 1041.619995 483.213013 1041.619995 483.213013 L 1004.849976 503.403992 L 1004.849976 596.825012 C 1004.280029 646.603027 968.116028 681.906006 914.565002 686.960022 L 868.719971 686.960022 L 868.719971 922.791016 L 739.215027 922.791016 Z"/>
    </g>
    <path id="path4" fill="#000000" fill-rule="evenodd" stroke="none" d="M 531.252014 45.260498 C 462.321991 -1.227417 369.109009 0.003052 369.109009 0.003052 C 166.679001 0.003052 0.000122 141.31604 0.000122 351.054932 C 0.000122 527.419983 106.257004 653.328003 264.674011 677.427979 L 264.674011 922.791016 L 429.53299 922.791016 L 594.390991 922.791016 L 594.390991 686.960022 L 640.234985 686.960022 C 693.786987 681.906006 729.952026 646.603027 730.52002 596.825012 L 730.52002 545.588989 L 730.52002 503.403992 L 767.286987 483.213013 C 767.286987 483.213013 722.914001 318.893066 690.000977 238.125977 C 657.088013 157.359009 600.182007 91.748413 531.252014 45.260498 Z M 624.541016 380.485962 C 660.948975 353.881958 657.060974 286.604004 615.856995 230.214966 C 574.653015 173.82605 511.735992 149.679932 475.328003 176.282959 C 438.920013 202.886963 442.808014 270.166016 484.011993 326.554932 C 525.216003 382.94397 588.132996 407.089966 624.541016 380.485962 Z"/>
</svg>
